<?xml version="1.0" standalone="no"?>
<!DOCTYPE svg PUBLIC "-//W3C//DTD SVG 20010904//EN"
 "http://www.w3.org/TR/2001/REC-SVG-20010904/DTD/svg10.dtd">
<svg version="1.0" xmlns="http://www.w3.org/2000/svg"
 width="1920.000000pt" height="1080.000000pt" viewBox="0 0 1920.000000 1080.000000"
 preserveAspectRatio="xMidYMid meet">

<g transform="translate(0.000000,1080.000000) scale(0.100000,-0.100000)"
fill="#000000" stroke="none">
<path d="M8635 10280 c-233 -6 -278 -10 -330 -27 -34 -11 -102 -23 -156 -26
-57 -4 -116 -14 -145 -25 -27 -11 -76 -23 -108 -27 -33 -4 -76 -15 -95 -26
-20 -10 -49 -19 -66 -19 -16 0 -52 -11 -80 -24 -27 -14 -67 -27 -87 -31 -21
-3 -38 -10 -38 -14 0 -12 -56 -31 -90 -31 -15 0 -37 -9 -49 -19 -12 -11 -45
-25 -74 -32 -29 -6 -63 -20 -76 -30 -13 -11 -34 -19 -46 -19 -12 0 -30 -9 -39
-19 -10 -11 -32 -23 -50 -27 -17 -4 -44 -17 -59 -30 -16 -13 -37 -24 -47 -24
-9 0 -23 -6 -29 -14 -7 -8 -49 -33 -94 -56 -122 -62 -147 -77 -171 -97 -34
-30 -101 -73 -114 -73 -6 0 -15 -6 -19 -14 -10 -18 -68 -61 -108 -80 -16 -8
-64 -45 -105 -83 -41 -37 -109 -94 -150 -125 -112 -84 -354 -327 -417 -418
-20 -29 -41 -53 -100 -119 -24 -25 -45 -54 -49 -63 -3 -10 -9 -18 -15 -18 -5
0 -15 -15 -23 -32 -7 -18 -22 -43 -32 -55 -47 -53 -60 -70 -81 -101 -13 -18
-30 -47 -39 -64 -9 -18 -23 -38 -30 -46 -8 -7 -14 -20 -14 -27 0 -7 -11 -26
-24 -42 -14 -16 -28 -41 -31 -56 -4 -14 -14 -32 -22 -38 -8 -7 -20 -27 -28
-46 -8 -18 -18 -33 -24 -33 -5 0 -13 -15 -16 -32 -4 -18 -15 -42 -25 -53 -10
-11 -23 -38 -30 -60 -7 -22 -18 -47 -25 -55 -7 -8 -18 -33 -24 -55 -6 -22 -20
-58 -31 -80 -11 -21 -20 -45 -20 -52 0 -7 -9 -21 -20 -31 -12 -11 -24 -40 -29
-69 -4 -27 -15 -60 -24 -74 -9 -13 -17 -35 -17 -49 0 -14 -11 -45 -24 -70 -13
-25 -27 -74 -31 -110 -4 -36 -16 -81 -26 -100 -13 -23 -19 -56 -19 -95 0 -39
-8 -75 -21 -105 -15 -32 -24 -78 -29 -156 -6 -77 -14 -122 -27 -145 -17 -33
-18 -87 -18 -1234 0 -1150 1 -1201 19 -1234 12 -23 20 -67 26 -140 5 -74 14
-119 28 -151 14 -30 22 -65 22 -105 0 -39 7 -73 18 -95 11 -19 22 -62 26 -95
4 -33 16 -77 27 -99 11 -21 24 -61 30 -89 5 -28 16 -58 24 -67 8 -9 15 -30 15
-46 0 -17 9 -40 21 -53 12 -12 27 -45 34 -73 8 -27 21 -58 29 -67 9 -10 16
-29 16 -43 0 -14 8 -36 19 -49 10 -14 23 -41 29 -62 6 -20 20 -49 31 -63 12
-15 21 -34 21 -44 0 -9 9 -25 19 -34 11 -10 23 -32 27 -49 3 -17 17 -39 29
-49 13 -10 26 -31 30 -47 3 -16 13 -35 21 -42 8 -6 14 -17 14 -24 0 -6 9 -20
19 -29 11 -10 23 -31 26 -46 3 -16 13 -34 21 -41 18 -14 84 -112 84 -124 0 -4
12 -19 28 -34 15 -15 38 -42 52 -60 14 -18 30 -38 35 -45 6 -6 19 -24 29 -41
29 -45 35 -51 121 -143 168 -179 469 -472 485 -472 12 0 79 -52 171 -132 14
-13 45 -34 68 -48 24 -14 56 -37 72 -53 16 -15 34 -27 39 -27 13 0 117 -67
125 -80 3 -5 14 -10 23 -10 9 0 46 -20 82 -45 36 -25 80 -50 98 -56 17 -6 32
-14 32 -19 0 -5 15 -12 33 -16 17 -3 55 -20 83 -35 28 -16 57 -29 65 -29 8 0
25 -9 39 -20 14 -11 34 -20 46 -20 11 0 35 -11 54 -25 19 -14 41 -25 50 -25
10 0 37 -11 61 -23 24 -13 63 -26 87 -30 24 -3 51 -12 60 -20 9 -9 46 -20 82
-27 36 -6 82 -20 103 -31 21 -11 58 -19 84 -19 27 0 58 -8 77 -19 18 -11 61
-22 101 -26 39 -3 88 -15 110 -25 26 -12 76 -20 146 -24 59 -4 131 -14 160
-23 49 -16 156 -17 1134 -20 927 -3 1085 -1 1125 11 54 18 182 36 251 36 29 0
65 8 87 19 20 10 71 22 113 25 48 5 86 14 105 27 18 12 47 19 77 19 28 0 72
10 107 25 33 14 72 25 87 25 16 0 46 10 68 22 22 12 62 25 89 29 27 5 56 15
65 22 9 8 32 18 51 22 19 4 44 15 55 25 11 10 39 23 61 29 23 6 47 18 54 26 7
8 19 15 27 15 9 0 32 9 52 19 55 29 169 81 177 81 8 0 117 71 124 81 3 4 19
11 35 15 17 4 36 16 43 26 7 10 28 25 45 33 41 19 158 92 183 113 5 5 20 15
32 21 12 6 39 28 60 49 45 44 132 112 143 112 14 0 94 75 304 285 225 225 291
297 300 325 3 10 16 29 28 43 12 15 31 38 42 53 11 15 32 39 46 53 14 15 30
38 34 51 8 26 13 33 65 89 17 18 34 46 37 62 3 16 9 29 14 29 4 0 22 30 40 67
18 38 45 80 61 95 17 16 28 37 28 53 0 14 7 28 15 31 8 3 19 22 26 42 7 21 20
47 30 60 10 13 20 36 24 51 3 16 15 37 26 47 11 9 19 30 19 47 0 16 9 44 19
61 11 17 25 51 31 76 7 24 20 55 31 68 10 14 19 37 19 52 0 15 9 35 20 45 12
11 20 31 20 49 0 17 11 54 24 83 14 28 28 78 32 110 4 32 15 74 25 93 10 19
21 69 25 110 4 41 15 95 24 120 12 29 20 82 23 153 4 82 9 114 23 135 18 26
19 76 22 1210 2 1182 2 1183 -19 1230 -14 33 -22 76 -25 142 -3 53 -14 119
-24 150 -10 30 -21 86 -25 124 -3 37 -15 86 -25 107 -12 22 -20 58 -20 86 0
31 -7 60 -20 81 -11 18 -25 56 -32 85 -6 28 -19 63 -28 77 -10 14 -21 43 -25
65 -4 22 -13 48 -22 57 -8 9 -19 36 -24 60 -6 23 -17 50 -25 60 -9 9 -20 36
-25 60 -6 23 -16 50 -23 58 -7 8 -18 30 -24 48 -6 18 -20 45 -32 59 -11 14
-20 34 -20 44 0 9 -8 25 -17 34 -18 18 -39 54 -73 123 -12 23 -25 42 -30 42
-5 0 -14 17 -20 39 -5 21 -17 44 -25 51 -8 6 -31 41 -51 77 -20 35 -56 85 -80
111 -25 25 -47 56 -50 68 -3 13 -12 25 -20 28 -8 3 -14 11 -14 18 0 7 -22 37
-48 65 -26 29 -78 92 -117 140 -87 110 -270 293 -395 395 -52 42 -117 98 -145
122 -58 52 -89 76 -126 95 -14 7 -45 30 -68 51 -24 22 -52 42 -64 46 -24 7
-66 37 -100 70 -12 12 -33 25 -47 29 -14 4 -32 14 -41 22 -9 7 -53 32 -98 54
-44 21 -81 44 -81 49 0 6 -11 10 -24 10 -14 0 -37 11 -53 23 -15 13 -41 27
-56 31 -15 3 -35 15 -45 26 -9 11 -28 20 -43 20 -14 0 -37 8 -50 18 -13 10
-51 26 -84 36 -33 10 -69 24 -80 31 -11 8 -38 17 -60 21 -22 4 -51 15 -64 25
-13 11 -37 19 -54 19 -16 0 -45 9 -63 20 -18 12 -58 25 -89 30 -30 5 -62 15
-70 23 -8 8 -44 18 -82 22 -37 4 -89 16 -115 26 -26 10 -101 24 -165 30 -65 6
-131 18 -148 27 -24 12 -94 17 -355 23 -375 9 -1499 8 -1895 -1z m1800 -520
c234 -6 349 -13 395 -24 36 -9 108 -21 160 -27 53 -6 110 -20 130 -30 21 -12
55 -19 87 -19 36 0 66 -8 99 -25 26 -14 60 -25 76 -25 17 0 43 -9 58 -20 16
-11 49 -24 75 -29 25 -5 53 -15 63 -24 9 -8 34 -18 54 -22 20 -4 51 -18 69
-31 18 -13 45 -24 59 -24 15 0 37 -9 50 -20 13 -11 34 -20 47 -20 12 0 32 -9
43 -20 11 -11 39 -27 62 -35 24 -8 44 -19 46 -25 2 -6 18 -17 35 -25 18 -8 55
-28 82 -45 28 -17 64 -37 80 -45 17 -9 50 -31 75 -50 25 -19 58 -42 73 -50 27
-15 39 -25 89 -70 13 -11 30 -24 39 -30 80 -49 157 -116 329 -287 140 -139
258 -267 274 -296 5 -9 31 -44 58 -77 62 -78 58 -72 97 -129 18 -28 37 -60 42
-73 5 -13 13 -23 18 -23 6 0 16 -18 22 -41 7 -22 20 -44 29 -49 10 -5 23 -23
30 -40 7 -16 16 -30 20 -30 5 0 13 -15 20 -34 6 -18 20 -42 30 -51 11 -10 20
-28 20 -40 0 -11 11 -36 25 -55 14 -19 25 -43 25 -55 0 -12 11 -36 25 -55 14
-19 25 -41 25 -50 0 -10 11 -38 25 -64 14 -26 25 -57 25 -68 0 -12 9 -31 20
-43 11 -12 24 -45 30 -75 6 -29 16 -61 24 -69 7 -9 19 -47 25 -85 7 -37 18
-78 25 -90 8 -11 17 -55 20 -95 4 -41 14 -89 22 -105 9 -18 20 -80 25 -146 6
-63 19 -141 30 -173 18 -55 19 -92 19 -1120 -1 -909 -3 -1068 -16 -1102 -8
-22 -21 -98 -29 -170 -8 -71 -24 -155 -35 -185 -10 -30 -19 -74 -20 -97 0 -23
-8 -64 -19 -90 -10 -26 -22 -70 -26 -98 -4 -27 -15 -63 -25 -80 -9 -16 -20
-47 -23 -68 -3 -20 -15 -49 -26 -64 -12 -14 -21 -38 -21 -52 0 -15 -11 -42
-24 -60 -13 -18 -27 -47 -30 -65 -4 -18 -15 -41 -26 -51 -11 -10 -20 -27 -20
-37 0 -22 -44 -120 -71 -159 -10 -14 -21 -37 -24 -51 -4 -15 -15 -34 -26 -44
-10 -9 -19 -20 -19 -24 0 -10 -79 -128 -91 -135 -5 -4 -9 -15 -9 -25 0 -10 -6
-25 -12 -32 -32 -34 -88 -113 -88 -124 0 -7 -6 -17 -12 -21 -7 -4 -31 -30 -52
-58 -22 -27 -47 -57 -56 -65 -9 -8 -41 -44 -70 -80 -59 -73 -303 -320 -317
-320 -7 0 -36 -25 -155 -135 -25 -24 -59 -51 -75 -60 -51 -29 -98 -61 -163
-112 -15 -13 -35 -23 -43 -23 -8 0 -22 -11 -30 -24 -9 -13 -32 -29 -52 -36
-19 -6 -35 -15 -35 -20 0 -4 -17 -15 -37 -24 -21 -9 -45 -20 -53 -25 -8 -5
-31 -16 -50 -25 -19 -9 -69 -34 -110 -56 -41 -22 -80 -40 -86 -40 -6 0 -17 -7
-24 -14 -6 -8 -35 -23 -63 -32 -29 -9 -61 -23 -72 -30 -11 -7 -38 -16 -60 -20
-22 -3 -47 -12 -55 -19 -8 -7 -41 -18 -72 -24 -32 -6 -68 -17 -80 -25 -13 -8
-54 -20 -93 -27 -38 -6 -80 -18 -92 -26 -11 -8 -54 -17 -95 -20 -47 -3 -85
-13 -106 -26 -26 -15 -61 -22 -150 -27 -68 -5 -140 -16 -172 -26 -52 -18 -107
-19 -1060 -19 -963 0 -1006 1 -1039 19 -26 13 -67 20 -156 26 -94 5 -131 12
-161 28 -25 13 -66 22 -112 26 -41 3 -84 12 -97 20 -13 8 -49 20 -82 25 -32 5
-78 19 -103 30 -25 11 -56 21 -70 21 -14 0 -41 9 -61 19 -20 11 -54 23 -75 26
-22 4 -48 13 -59 19 -11 7 -41 20 -68 29 -26 9 -59 25 -74 36 -14 12 -32 21
-40 21 -8 0 -26 9 -40 20 -14 11 -33 20 -42 20 -9 0 -36 14 -60 30 -24 17 -52
30 -62 30 -10 0 -21 4 -24 10 -3 5 -44 30 -90 56 -47 25 -85 50 -85 55 0 5 -8
13 -17 16 -10 4 -44 25 -77 47 -32 23 -66 46 -75 51 -64 41 -104 68 -120 83
-46 44 -131 119 -156 137 -35 25 -271 259 -308 305 -50 62 -111 132 -160 184
-26 28 -50 62 -54 76 -3 14 -15 34 -25 45 -40 41 -78 98 -78 116 0 11 -4 19
-9 19 -12 0 -81 102 -81 119 0 7 -11 23 -24 36 -13 13 -27 38 -31 54 -3 16
-13 35 -20 41 -8 6 -19 28 -26 48 -7 20 -20 48 -30 61 -11 13 -19 36 -19 52 0
18 -7 32 -20 39 -10 6 -22 26 -26 45 -3 18 -17 48 -30 66 -13 18 -24 45 -24
60 0 14 -8 37 -19 50 -10 13 -22 44 -26 69 -4 25 -16 61 -26 80 -11 19 -19 48
-19 65 0 16 -10 50 -21 75 -11 25 -25 83 -30 128 -5 46 -16 97 -24 113 -9 16
-20 77 -25 136 -6 60 -18 131 -28 158 -16 46 -17 133 -17 1135 0 1019 1 1088
18 1137 10 28 22 99 26 157 6 69 15 115 25 131 9 14 20 62 25 107 5 46 16 99
24 118 8 19 18 58 22 85 4 28 16 66 26 87 10 20 21 54 25 77 3 22 15 48 25 57
11 9 19 29 19 44 0 14 11 41 25 60 14 19 25 44 25 56 0 12 9 33 21 48 11 14
25 43 31 63 6 21 19 48 29 62 11 13 19 30 19 37 0 30 98 199 126 217 7 4 15
21 19 37 4 16 11 32 16 35 11 7 79 109 79 119 0 4 31 44 69 89 37 45 74 94 82
108 15 30 122 150 183 207 47 45 132 130 206 206 30 32 90 83 134 114 44 31
92 69 107 85 15 15 31 27 36 27 4 0 19 12 32 25 13 14 28 25 33 25 6 0 23 11
40 25 16 14 35 25 41 25 7 0 17 8 24 19 6 10 24 21 38 25 15 4 39 15 54 25 74
50 108 71 117 71 6 0 19 9 28 19 10 11 32 23 50 27 17 4 44 17 59 30 16 13 39
24 51 24 13 0 31 9 41 20 10 11 30 20 44 20 15 0 42 11 62 24 20 14 53 28 75
32 21 4 50 15 63 25 13 11 34 19 46 19 12 0 43 11 69 25 26 14 57 25 69 25 12
0 45 11 72 25 32 16 68 24 100 25 29 0 65 8 85 19 20 10 68 21 110 25 42 3
114 16 160 27 68 17 135 22 330 28 354 11 1370 11 1755 1z"/>
<path d="M9432 8710 c-12 -5 -28 -14 -35 -20 -6 -6 -21 -17 -32 -25 -18 -12
-20 -27 -23 -189 l-3 -175 -40 -35 -39 -36 -930 0 -929 0 -25 -24 c-31 -32
-39 -80 -39 -246 0 -144 10 -195 44 -226 20 -18 58 -19 958 -21 l936 -3 33
-35 32 -35 0 -2627 c0 -1446 4 -2633 8 -2638 4 -6 20 -21 36 -33 27 -21 38
-22 221 -22 l191 0 32 28 32 29 0 2629 1 2629 32 37 32 37 935 3 c514 2 943 7
953 12 37 18 47 69 47 248 0 180 -9 226 -48 247 -15 8 -303 11 -947 11 l-927
0 -39 41 -39 41 0 174 c0 157 -2 175 -17 181 -10 3 -28 15 -41 27 -21 19 -37
21 -185 23 -89 2 -172 -1 -185 -7z"/>
<path d="M7386 7235 c-15 -14 -32 -40 -37 -58 -13 -42 -12 -2641 0 -2685 5
-17 22 -43 37 -57 l27 -25 736 2 736 3 24 24 c46 46 61 109 61 249 0 71 -3
132 -7 135 -3 4 -14 29 -22 55 l-16 47 -508 5 -508 5 -19 25 c-11 14 -22 41
-26 60 -3 19 -9 49 -14 65 -12 44 -5 353 10 407 21 82 -15 76 540 81 272 2
502 7 510 11 8 3 26 33 39 67 21 55 23 71 19 197 -4 114 -8 145 -26 183 -12
26 -30 51 -39 55 -10 5 -239 10 -509 12 -460 3 -493 4 -508 21 -9 10 -24 56
-32 102 -20 106 -14 357 10 434 28 89 2 85 564 85 382 0 493 3 499 13 30 48
42 118 43 245 0 145 -13 191 -68 240 l-25 22 -732 0 -732 0 -27 -25z"/>
<path d="M10286 7218 c-21 -24 -41 -48 -47 -55 -5 -7 -9 -299 -9 -749 0 -721
0 -736 20 -761 11 -14 20 -32 20 -39 0 -37 32 -39 530 -39 353 -1 491 -4 506
-13 34 -18 44 -84 44 -284 0 -228 -9 -289 -47 -323 l-28 -24 -490 -1 c-269 0
-494 -4 -500 -8 -5 -4 -20 -28 -33 -53 -21 -42 -23 -59 -23 -193 1 -137 2
-149 25 -185 14 -21 37 -48 52 -60 l27 -21 731 2 731 3 30 28 30 29 3 771 c2
758 2 773 -18 805 -11 18 -32 37 -46 42 -15 6 -217 10 -504 10 l-478 0 -32 40
-32 40 1 232 c1 213 3 234 21 264 39 62 9 59 556 64 394 4 506 8 516 18 10 10
13 65 13 227 l0 214 -29 30 -30 31 -737 0 -737 0 -36 -42z"/>
<path d="M6187 5810 c-26 -5 -61 -20 -78 -34 -17 -14 -37 -26 -44 -26 -8 0
-16 -8 -19 -18 -4 -10 -15 -28 -27 -40 -11 -13 -27 -48 -35 -80 -8 -31 -19
-61 -25 -66 -14 -15 -11 -50 11 -97 11 -24 20 -57 20 -73 0 -35 95 -131 139
-141 16 -3 37 -15 47 -26 25 -27 170 -28 205 0 13 10 35 22 49 26 25 7 130
111 130 128 0 5 9 20 20 34 17 22 20 41 20 120 0 73 -3 95 -15 99 -8 3 -19 22
-26 42 -14 47 -97 125 -147 140 -53 16 -169 22 -225 12z"/>
<path d="M12905 5815 c-5 -2 -31 -6 -56 -10 -35 -4 -54 -14 -80 -41 -19 -20
-42 -43 -51 -52 -10 -9 -18 -21 -18 -27 0 -6 -11 -27 -25 -47 -23 -34 -25 -46
-25 -142 0 -95 2 -106 20 -116 11 -6 22 -21 26 -34 7 -28 75 -93 119 -113 17
-8 41 -21 55 -28 15 -9 53 -15 96 -15 59 0 75 4 104 25 19 14 44 25 57 25 13
0 26 7 29 15 3 8 14 17 24 20 18 6 54 56 73 100 33 77 24 244 -15 297 -60 80
-118 122 -186 137 -50 10 -125 14 -147 6z"/>
<path d="M8836 3758 c-21 -4 -50 -17 -65 -27 -14 -10 -36 -21 -48 -25 -11 -4
-24 -13 -27 -21 -3 -8 -21 -17 -41 -21 -20 -3 -39 -12 -42 -19 -2 -8 -22 -21
-44 -29 -22 -9 -46 -21 -52 -26 -34 -28 -104 -70 -119 -70 -10 0 -22 -9 -28
-20 -10 -19 -33 -34 -126 -78 -23 -11 -45 -25 -48 -31 -4 -6 -15 -11 -25 -11
-10 0 -35 -13 -56 -30 -21 -16 -45 -30 -55 -30 -9 0 -27 -11 -39 -24 -13 -13
-52 -38 -87 -56 -35 -17 -64 -35 -64 -39 0 -5 -15 -15 -32 -22 -18 -7 -48 -24
-67 -36 -19 -13 -42 -23 -52 -23 -11 0 -19 -5 -19 -10 0 -6 -16 -18 -35 -27
-19 -9 -35 -20 -35 -24 0 -5 -18 -14 -40 -20 -22 -7 -47 -23 -55 -36 -9 -12
-24 -23 -34 -23 -10 0 -28 -9 -41 -20 -13 -11 -28 -20 -35 -20 -22 0 -73 -65
-79 -100 -21 -136 -11 -389 17 -417 33 -34 119 -26 187 17 8 6 26 15 39 20 13
6 37 22 53 35 16 14 35 25 43 25 7 0 18 7 25 16 8 8 27 22 44 30 53 25 90 45
106 55 8 5 35 19 60 31 25 11 51 29 58 40 7 10 18 18 25 18 12 0 74 40 120 77
16 13 40 23 53 23 14 0 27 6 30 14 3 8 20 20 37 27 18 7 43 20 57 29 91 60
107 70 119 70 7 0 29 14 48 30 18 17 40 30 47 30 8 0 19 7 26 15 7 8 45 30 85
49 39 20 78 42 84 50 7 9 28 18 47 22 19 3 39 14 44 24 6 10 19 22 31 25 11 4
40 20 62 35 63 43 79 105 74 286 -5 173 -21 236 -63 244 -16 4 -46 3 -68 -2z"/>
<path d="M10257 3708 c-24 -49 -26 -65 -28 -210 -2 -133 0 -160 13 -175 9 -10
19 -29 23 -43 4 -16 24 -36 57 -55 28 -16 61 -40 72 -51 12 -12 35 -25 53 -28
17 -4 36 -13 42 -20 6 -7 41 -28 78 -47 38 -18 81 -44 96 -56 16 -13 37 -23
48 -23 10 0 26 -11 35 -25 9 -14 24 -25 34 -25 9 0 28 -8 41 -19 13 -10 58
-37 99 -60 41 -23 82 -46 90 -50 8 -5 26 -14 40 -20 14 -6 50 -29 80 -51 30
-22 60 -40 66 -40 6 0 20 -11 32 -25 12 -14 30 -25 41 -25 10 0 30 -9 44 -20
14 -11 41 -27 59 -36 18 -8 51 -26 73 -40 22 -13 59 -33 83 -44 23 -10 42 -24
42 -29 0 -5 17 -18 38 -30 120 -65 181 -76 222 -43 l25 20 3 214 3 213 -29 31
c-16 18 -38 35 -49 38 -11 4 -31 15 -43 26 -13 11 -31 20 -41 20 -11 0 -24 9
-31 21 -7 11 -31 29 -53 40 -22 10 -57 29 -77 42 -83 50 -169 97 -178 97 -5 0
-17 8 -27 19 -10 10 -29 22 -43 26 -24 7 -38 17 -109 73 -16 12 -36 22 -44 22
-9 0 -29 11 -45 25 -17 14 -34 25 -40 25 -5 0 -25 11 -45 24 -19 13 -45 27
-58 31 -26 8 -69 37 -109 71 -14 12 -36 25 -49 29 -22 7 -81 42 -108 65 -6 5
-30 17 -52 26 -22 8 -42 21 -44 28 -3 8 -18 17 -34 20 -15 4 -35 14 -43 21
-40 36 -134 75 -180 75 -48 0 -48 0 -73 -52z"/>
</g>
</svg>
