<?xml version="1.0" standalone="no"?>
<!DOCTYPE svg PUBLIC "-//W3C//DTD SVG 20010904//EN"
 "http://www.w3.org/TR/2001/REC-SVG-20010904/DTD/svg10.dtd">
<svg version="1.0" xmlns="http://www.w3.org/2000/svg"
 width="1920.000000pt" height="1080.000000pt" viewBox="0 0 1920.000000 1080.000000"
 preserveAspectRatio="xMidYMid meet">

<g transform="translate(0.000000,1080.000000) scale(0.100000,-0.100000)"
fill="#000000" stroke="none">
<path d="M1540 9701 c-74 -5 -172 -11 -217 -16 l-83 -7 0 -29 c0 -28 2 -29 48
-29 37 0 53 -6 75 -25 15 -14 27 -36 28 -48 0 -12 0 -195 0 -406 -1 -281 -4
-387 -13 -398 -20 -24 -65 -43 -103 -43 -32 0 -35 -2 -35 -30 l0 -30 303 0
c397 0 530 17 674 87 146 71 231 195 274 396 20 95 -13 242 -77 342 -77 121
-176 179 -379 224 -68 14 -331 21 -495 12z m354 -77 c112 -23 176 -55 234
-119 131 -143 159 -368 71 -572 -26 -61 -111 -148 -174 -177 -104 -50 -295
-72 -353 -42 -52 27 -53 29 -50 481 l3 419 40 12 c57 17 135 17 229 -2z"/>
<path d="M4040 9704 c-201 -36 -341 -116 -422 -240 -52 -80 -71 -129 -92 -239
-15 -75 -14 -85 3 -160 54 -235 184 -358 441 -416 82 -18 251 -16 340 5 41 10
112 36 156 57 309 146 383 590 139 834 -68 68 -135 105 -255 140 -54 16 -259
28 -310 19z m222 -92 c127 -59 194 -159 233 -347 50 -237 -29 -477 -180 -545
-75 -34 -136 -43 -206 -29 -230 43 -362 259 -345 564 7 143 42 232 119 303
104 95 245 115 379 54z"/>
<path d="M8540 9704 c-115 -12 -240 -52 -318 -101 -221 -140 -294 -432 -171
-689 87 -183 278 -278 559 -277 133 0 210 13 355 62 l80 27 5 150 c3 82 9 156
13 165 8 16 23 25 80 48 19 7 27 17 25 29 -3 16 -26 17 -276 20 l-272 2 0 -24
c0 -28 16 -36 70 -36 55 0 126 -33 133 -62 10 -35 8 -261 -2 -277 -26 -40
-187 -54 -289 -25 -186 54 -296 223 -297 454 0 61 6 126 14 155 56 197 204
315 396 315 148 0 249 -64 319 -201 26 -52 38 -65 59 -67 l27 -3 0 150 c0 139
-1 151 -18 151 -10 0 -23 -5 -29 -11 -13 -13 -65 -8 -188 19 -94 21 -215 32
-275 26z"/>
<path d="M12403 9698 c-6 -7 -18 -35 -28 -63 -9 -27 -21 -59 -25 -70 -4 -11
-22 -60 -40 -110 -17 -49 -37 -106 -45 -125 -8 -19 -28 -75 -45 -125 -18 -49
-36 -99 -40 -110 -4 -11 -22 -60 -40 -110 -54 -155 -73 -196 -98 -227 -29 -35
-72 -58 -107 -58 -21 0 -25 -5 -25 -30 l0 -30 215 0 215 0 0 30 c0 28 -3 30
-36 30 -51 0 -108 19 -122 40 -9 14 -2 45 32 152 l44 133 188 3 189 2 48 -118
c57 -143 60 -174 15 -196 -17 -9 -51 -16 -75 -16 -41 0 -43 -1 -43 -30 l0 -30
268 2 c265 3 267 3 270 25 3 17 -7 26 -51 46 -47 21 -107 78 -107 101 0 5 -6
22 -14 39 -14 30 -42 102 -151 385 -25 64 -50 126 -55 137 -5 11 -30 74 -55
140 -25 66 -54 136 -63 155 l-18 35 -95 3 c-69 2 -99 -1 -106 -10z m120 -378
c41 -102 73 -188 70 -192 -2 -5 -70 -8 -149 -8 l-146 0 7 33 c4 17 11 36 16
42 5 5 9 15 9 23 0 8 6 28 14 45 22 50 76 202 76 213 0 10 22 36 26 31 2 -2
37 -86 77 -187z"/>
<path d="M16830 9704 c-102 -11 -221 -45 -300 -86 -25 -12 -72 -50 -106 -83
-73 -72 -113 -153 -139 -277 -17 -84 -17 -91 0 -180 46 -242 160 -358 415
-424 90 -23 289 -23 395 0 101 23 228 65 237 80 4 6 8 77 8 157 0 163 3 170
74 190 29 8 36 15 36 34 l0 25 -270 0 -270 0 0 -24 c0 -28 16 -36 70 -36 42 0
84 -15 113 -38 15 -13 17 -34 17 -163 l0 -147 -47 -16 c-59 -20 -184 -20 -243
0 -77 26 -106 42 -158 89 -49 44 -112 148 -112 185 0 9 -6 22 -12 28 -22 22
-17 275 5 337 56 154 131 225 288 274 50 16 166 13 217 -4 95 -33 149 -82 202
-183 29 -55 39 -67 60 -67 l25 0 0 145 0 145 -25 -4 c-60 -8 -121 -3 -205 16
-93 21 -214 33 -275 27z"/>
<path d="M5740 9651 c0 -27 3 -29 50 -35 85 -11 80 14 79 -429 -1 -216 -4
-403 -8 -417 -9 -32 -65 -70 -103 -70 -26 0 -29 -3 -26 -27 l3 -28 195 0 195
0 3 28 c3 25 1 27 -33 27 -20 0 -49 7 -65 15 -61 31 -60 26 -60 410 l0 350
143 -145 c175 -179 547 -567 612 -637 43 -49 51 -53 91 -53 l44 0 0 464 c0
539 -6 507 96 516 55 5 59 7 59 30 l0 25 -213 3 -213 2 3 -27 c3 -27 6 -28 66
-33 56 -4 67 -9 88 -35 l24 -30 0 -286 c0 -157 -2 -288 -5 -291 -7 -6 -216
206 -605 615 l-83 87 -169 0 -168 0 0 -29z"/>
<path d="M10120 9656 c0 -20 6 -24 40 -30 31 -5 45 -14 60 -39 19 -30 20 -52
20 -435 l0 -403 -26 -24 c-18 -16 -39 -25 -60 -25 -31 0 -34 -3 -34 -30 l0
-30 245 0 245 0 0 30 c0 28 -3 30 -35 30 -19 0 -45 5 -58 11 -46 21 -52 49
-52 233 l0 171 161 3 c162 2 162 2 193 -24 19 -15 31 -35 31 -50 0 -24 33 -50
50 -39 6 4 10 73 10 166 l0 160 -27 -3 c-21 -2 -29 -9 -31 -27 -6 -41 -32 -70
-71 -81 -36 -9 -282 -11 -308 -2 -10 3 -13 50 -13 188 l0 184 23 5 c13 4 101
5 194 3 198 -4 202 -5 223 -94 11 -47 17 -54 34 -52 20 3 21 10 24 116 l3 112
-421 0 -420 0 0 -24z"/>
<path d="M14026 9665 c-10 -28 5 -42 51 -49 25 -3 52 -11 59 -17 11 -9 14 -90
14 -429 0 -385 -1 -418 -17 -432 -24 -19 -70 -38 -93 -38 -16 0 -20 -7 -20
-30 l0 -30 195 0 195 0 0 30 c0 27 -3 30 -30 30 -38 0 -105 33 -116 57 -11 25
-18 678 -7 698 8 13 46 -23 199 -182 104 -109 248 -259 319 -333 72 -74 166
-172 210 -217 71 -75 82 -83 116 -83 30 0 38 4 43 23 3 12 6 223 6 469 l0 447
26 20 c19 15 41 21 75 21 48 0 49 1 49 30 l0 30 -211 0 -210 0 3 -27 c3 -26 6
-28 66 -34 106 -10 102 2 102 -353 l0 -301 -62 65 c-34 36 -130 135 -213 220
-82 85 -209 217 -282 293 l-132 137 -164 0 c-137 0 -166 -3 -171 -15z"/>
<path d="M11205 7426 c-25 -25 -27 -33 -22 -81 9 -87 81 -207 226 -379 l93
-110 -6 -45 c-3 -25 -10 -59 -15 -76 -14 -43 -33 -114 -42 -155 -4 -19 -15
-64 -24 -100 -9 -36 -21 -89 -27 -118 l-11 -53 44 -44 c24 -25 58 -54 75 -65
37 -24 107 -26 147 -5 15 8 171 129 347 270 277 222 320 260 320 283 -1 98
-219 387 -375 497 -75 53 -175 107 -240 130 -27 9 -59 21 -70 25 -47 20 -178
41 -281 47 l-112 6 -27 -27z"/>
<path d="M7835 7246 c-69 -31 -110 -104 -150 -266 -50 -205 -133 -401 -233
-550 -64 -95 -199 -239 -291 -310 -111 -85 -108 -130 7 -130 l65 0 -7 -47
c-17 -129 -106 -335 -373 -868 l-225 -449 7 -81 c12 -138 50 -231 124 -298 55
-49 104 -64 162 -52 18 4 105 52 194 106 182 111 192 113 297 78 128 -42 121
-37 114 -88 -14 -117 -37 -286 -51 -391 -9 -63 -18 -133 -21 -155 -8 -73 -35
-269 -45 -335 -5 -36 -13 -105 -19 -155 -5 -49 -16 -113 -24 -141 -49 -159
-231 -266 -541 -318 -202 -33 -548 -56 -560 -36 -6 9 37 75 92 140 7 8 67 85
134 170 66 85 148 190 182 234 91 115 98 127 95 166 l-3 35 -73 0 c-40 0 -76
-5 -80 -10 -16 -23 -372 -303 -496 -390 -16 -11 -40 -29 -55 -41 -98 -79 -674
-454 -697 -454 -2 0 -21 -11 -42 -23 -34 -22 -62 -38 -207 -117 -138 -76 -439
-221 -573 -277 -96 -39 -101 -39 -262 2 -136 35 -132 36 -208 -41 l-67 -69 -3
-113 -4 -114 183 -184 183 -184 209 0 c200 0 213 1 325 30 64 17 127 35 140
40 18 8 217 173 397 331 48 42 130 112 156 134 38 32 233 199 239 205 5 5 122
106 185 159 16 13 45 35 64 49 l36 24 190 -7 c357 -13 524 -33 775 -94 97 -24
190 -65 270 -118 19 -13 53 -35 75 -50 47 -31 150 -43 210 -23 35 11 125 92
125 112 0 5 11 25 24 46 43 68 107 235 113 292 5 52 3 58 -30 98 -39 47 -40
59 -11 150 8 23 14 52 14 63 0 11 6 30 13 42 9 17 13 235 17 956 l5 934 93 51
c129 71 296 198 362 277 79 96 116 172 135 280 18 105 12 139 -35 184 l-30 29
-27 -26 c-16 -14 -104 -92 -198 -173 -93 -81 -203 -178 -244 -214 -141 -126
-170 -135 -242 -75 l-42 35 -218 -218 c-208 -207 -249 -240 -285 -226 -17 6
-17 11 -1 43 54 103 145 274 167 315 15 28 60 113 100 190 40 77 76 145 80
150 4 6 40 73 80 150 68 132 120 230 195 370 30 56 39 63 116 103 281 146 375
195 384 202 6 4 33 20 60 35 331 182 604 371 705 489 47 55 47 53 -28 129
l-70 70 -95 5 c-54 2 -109 0 -126 -6 -23 -8 -209 -138 -231 -162 -3 -3 -84
-64 -180 -136 -238 -178 -281 -190 -270 -79 1 11 15 34 32 52 33 34 35 52 30
198 l-2 70 -101 135 c-56 74 -107 138 -113 142 -16 11 -37 9 -71 -6z"/>
<path d="M12440 5948 c-54 -24 -87 -38 -135 -56 -83 -32 -393 -176 -470 -217
-22 -12 -88 -48 -148 -79 -389 -205 -913 -576 -1207 -853 l-45 -42 94 -95 c55
-55 106 -97 120 -100 54 -11 294 19 431 54 191 48 434 161 601 279 24 18 60
42 79 55 140 92 445 394 609 602 130 164 121 152 157 204 65 93 71 191 17 248
-14 15 -69 15 -103 0z"/>
<path d="M11572 4688 c-5 -7 -21 -38 -35 -68 -14 -30 -62 -131 -107 -225 -100
-207 -168 -348 -230 -480 -50 -105 -126 -265 -242 -505 -39 -80 -90 -185 -113
-235 -23 -49 -76 -160 -118 -245 -41 -85 -98 -204 -127 -265 -161 -336 -333
-696 -485 -1010 -78 -163 -100 -219 -90 -235 3 -5 35 -10 70 -10 l64 0 398
595 c219 328 403 603 408 613 6 9 37 56 68 103 55 81 62 88 105 98 76 19 115
45 139 92 12 24 23 56 23 70 0 35 9 45 140 149 289 230 539 503 630 690 12 25
26 53 31 62 5 10 9 71 9 135 0 118 -17 233 -45 306 -46 117 -180 265 -306 340
-53 31 -73 37 -120 37 -33 0 -61 -5 -67 -12z"/>
<path d="M8720 4003 c-41 -13 -88 -29 -103 -35 l-28 -11 110 -112 c130 -131
136 -149 76 -223 -19 -24 -37 -53 -40 -63 -7 -23 14 -61 54 -95 l26 -23 -72
-145 c-40 -81 -73 -152 -73 -159 0 -15 116 -130 147 -146 29 -15 155 -14 207
1 22 7 69 29 104 50 34 21 64 38 66 38 3 0 39 20 80 45 42 25 79 45 81 45 3 0
34 18 70 40 36 22 69 40 73 40 4 1 18 10 31 21 23 19 24 24 18 102 -12 164
-102 319 -257 438 -41 32 -78 58 -83 59 -4 0 -24 10 -45 23 -70 43 -322 139
-356 136 -6 -1 -45 -12 -86 -26z"/>
<path d="M12592 4010 c-196 -17 -360 -71 -392 -129 -21 -40 -11 -65 50 -126
l61 -60 256 2 c154 1 263 -2 274 -8 17 -9 19 -23 19 -130 0 -139 2 -132 -108
-294 -152 -222 -300 -427 -390 -540 -237 -297 -338 -413 -552 -627 l-157 -158
-55 0 c-186 0 -396 153 -518 375 -51 94 -49 94 -113 27 -31 -33 -59 -71 -63
-85 -7 -29 15 -81 76 -182 20 -33 49 -82 64 -110 16 -27 59 -102 96 -165 37
-63 104 -176 147 -250 l80 -135 63 -3 c115 -5 293 42 420 111 134 74 265 206
359 362 30 50 70 98 186 225 216 236 519 611 686 847 231 326 369 612 369 765
0 37 -7 47 -125 166 l-126 127 -257 1 c-141 1 -299 -2 -350 -6z"/>
</g>
</svg>
